<?xml version="1.0" encoding="UTF-8" standalone="no"?>
<!DOCTYPE svg PUBLIC "-//W3C//DTD SVG 1.0//EN" "http://www.w3.org/TR/2001/PR-SVG-20010719/DTD/svg10.dtd">
<svg width="43cm" height="31cm" viewBox="507 57 855 610" xmlns="http://www.w3.org/2000/svg" xmlns:xlink="http://www.w3.org/1999/xlink">
  <g>
    <rect style="fill: #ffffff" x="964.3" y="243.6" width="118.7" height="156.4"/>
    <path style="fill: #ffffff" d="M 964.3,243.6 A 10,10 0 0 0 954.3,253.6 L 964.3,253.6 z"/>
    <path style="fill: #ffffff" d="M 1093,253.6 A 10,10 0 0 0 1083,243.6 L 1083,253.6 z"/>
    <rect style="fill: #ffffff" x="954.3" y="253.6" width="138.7" height="136.4"/>
    <path style="fill: #ffffff" d="M 954.3,390 A 10,10 0 0 0 964.3,400 L 964.3,390 z"/>
    <path style="fill: #ffffff" d="M 1083,400 A 10,10 0 0 0 1093,390 L 1083,390 z"/>
    <line style="fill: none; fill-opacity:0; stroke-width: 2; stroke: #808080" x1="964.3" y1="243.6" x2="1083" y2="243.6"/>
    <line style="fill: none; fill-opacity:0; stroke-width: 2; stroke: #808080" x1="964.3" y1="400" x2="1083" y2="400"/>
    <path style="fill: none; fill-opacity:0; stroke-width: 2; stroke: #808080" d="M 964.3,243.6 A 10,10 0 0 0 954.3,253.6"/>
    <path style="fill: none; fill-opacity:0; stroke-width: 2; stroke: #808080" d="M 1093,253.6 A 10,10 0 0 0 1083,243.6"/>
    <line style="fill: none; fill-opacity:0; stroke-width: 2; stroke: #808080" x1="954.3" y1="253.6" x2="954.3" y2="390"/>
    <line style="fill: none; fill-opacity:0; stroke-width: 2; stroke: #808080" x1="1093" y1="253.6" x2="1093" y2="390"/>
    <path style="fill: none; fill-opacity:0; stroke-width: 2; stroke: #808080" d="M 954.3,390 A 10,10 0 0 0 964.3,400"/>
    <path style="fill: none; fill-opacity:0; stroke-width: 2; stroke: #808080" d="M 1083,400 A 10,10 0 0 0 1093,390"/>
    <text font-size="18.0622" style="fill: #404040;text-anchor:middle;font-family:sans-serif;font-style:normal;font-weight:700" x="1023.65" y="327.261">
      <tspan x="1023.65" y="327.261"></tspan>
    </text>
  </g>
  <g>
    <rect style="fill: #d0e8ff" x="547.318" y="182.422" width="134.65" height="87.1556"/>
    <path style="fill: #d0e8ff" d="M 547.318,182.422 A 10,10 0 0 0 537.318,192.422 L 547.318,192.422 z"/>
    <path style="fill: #d0e8ff" d="M 691.968,192.422 A 10,10 0 0 0 681.968,182.422 L 681.968,192.422 z"/>
    <rect style="fill: #d0e8ff" x="537.318" y="192.422" width="154.65" height="67.1556"/>
    <path style="fill: #d0e8ff" d="M 537.318,259.578 A 10,10 0 0 0 547.318,269.578 L 547.318,259.578 z"/>
    <path style="fill: #d0e8ff" d="M 681.968,269.578 A 10,10 0 0 0 691.968,259.578 L 681.968,259.578 z"/>
    <line style="fill: none; fill-opacity:0; stroke-width: 2; stroke: #808080" x1="547.318" y1="182.422" x2="681.968" y2="182.422"/>
    <line style="fill: none; fill-opacity:0; stroke-width: 2; stroke: #808080" x1="547.318" y1="269.578" x2="681.968" y2="269.578"/>
    <path style="fill: none; fill-opacity:0; stroke-width: 2; stroke: #808080" d="M 547.318,182.422 A 10,10 0 0 0 537.318,192.422"/>
    <path style="fill: none; fill-opacity:0; stroke-width: 2; stroke: #808080" d="M 691.968,192.422 A 10,10 0 0 0 681.968,182.422"/>
    <line style="fill: none; fill-opacity:0; stroke-width: 2; stroke: #808080" x1="537.318" y1="192.422" x2="537.318" y2="259.578"/>
    <line style="fill: none; fill-opacity:0; stroke-width: 2; stroke: #808080" x1="691.968" y1="192.422" x2="691.968" y2="259.578"/>
    <path style="fill: none; fill-opacity:0; stroke-width: 2; stroke: #808080" d="M 537.318,259.578 A 10,10 0 0 0 547.318,269.578"/>
    <path style="fill: none; fill-opacity:0; stroke-width: 2; stroke: #808080" d="M 681.968,269.578 A 10,10 0 0 0 691.968,259.578"/>
    <text font-size="18.0622" style="fill: #404040;text-anchor:middle;font-family:sans-serif;font-style:normal;font-weight:700" x="614.643" y="220.172">
      <tspan x="614.643" y="220.172">Live</tspan>
      <tspan x="614.643" y="242.75">snapshot</tspan>
    </text>
  </g>
  <g>
    <rect style="fill: #d0e8ff" x="546.168" y="451.078" width="137.05" height="87.1556"/>
    <path style="fill: #d0e8ff" d="M 546.168,451.078 A 10,10 0 0 0 536.168,461.078 L 546.168,461.078 z"/>
    <path style="fill: #d0e8ff" d="M 693.218,461.078 A 10,10 0 0 0 683.218,451.078 L 683.218,461.078 z"/>
    <rect style="fill: #d0e8ff" x="536.168" y="461.078" width="157.05" height="67.1556"/>
    <path style="fill: #d0e8ff" d="M 536.168,528.234 A 10,10 0 0 0 546.168,538.234 L 546.168,528.234 z"/>
    <path style="fill: #d0e8ff" d="M 683.218,538.234 A 10,10 0 0 0 693.218,528.234 L 683.218,528.234 z"/>
    <line style="fill: none; fill-opacity:0; stroke-width: 2; stroke: #808080" x1="546.168" y1="451.078" x2="683.218" y2="451.078"/>
    <line style="fill: none; fill-opacity:0; stroke-width: 2; stroke: #808080" x1="546.168" y1="538.234" x2="683.218" y2="538.234"/>
    <path style="fill: none; fill-opacity:0; stroke-width: 2; stroke: #808080" d="M 546.168,451.078 A 10,10 0 0 0 536.168,461.078"/>
    <path style="fill: none; fill-opacity:0; stroke-width: 2; stroke: #808080" d="M 693.218,461.078 A 10,10 0 0 0 683.218,451.078"/>
    <line style="fill: none; fill-opacity:0; stroke-width: 2; stroke: #808080" x1="536.168" y1="461.078" x2="536.168" y2="528.234"/>
    <line style="fill: none; fill-opacity:0; stroke-width: 2; stroke: #808080" x1="693.218" y1="461.078" x2="693.218" y2="528.234"/>
    <path style="fill: none; fill-opacity:0; stroke-width: 2; stroke: #808080" d="M 536.168,528.234 A 10,10 0 0 0 546.168,538.234"/>
    <path style="fill: none; fill-opacity:0; stroke-width: 2; stroke: #808080" d="M 683.218,538.234 A 10,10 0 0 0 693.218,528.234"/>
    <text font-size="18.0622" style="fill: #404040;text-anchor:middle;font-family:sans-serif;font-style:normal;font-weight:700" x="614.693" y="488.828">
      <tspan x="614.693" y="488.828">Continuous</tspan>
      <tspan x="614.693" y="511.406">integration</tspan>
    </text>
  </g>
  <g>
    <rect style="fill: #d0e8ff" x="857.892" y="575.122" width="127.1" height="87.1556"/>
    <path style="fill: #d0e8ff" d="M 857.892,575.122 A 10,10 0 0 0 847.892,585.122 L 857.892,585.122 z"/>
    <path style="fill: #d0e8ff" d="M 994.992,585.122 A 10,10 0 0 0 984.992,575.122 L 984.992,585.122 z"/>
    <rect style="fill: #d0e8ff" x="847.892" y="585.122" width="147.1" height="67.1556"/>
    <path style="fill: #d0e8ff" d="M 847.892,652.278 A 10,10 0 0 0 857.892,662.278 L 857.892,652.278 z"/>
    <path style="fill: #d0e8ff" d="M 984.992,662.278 A 10,10 0 0 0 994.992,652.278 L 984.992,652.278 z"/>
    <line style="fill: none; fill-opacity:0; stroke-width: 2; stroke: #808080" x1="857.892" y1="575.122" x2="984.992" y2="575.122"/>
    <line style="fill: none; fill-opacity:0; stroke-width: 2; stroke: #808080" x1="857.892" y1="662.278" x2="984.992" y2="662.278"/>
    <path style="fill: none; fill-opacity:0; stroke-width: 2; stroke: #808080" d="M 857.892,575.122 A 10,10 0 0 0 847.892,585.122"/>
    <path style="fill: none; fill-opacity:0; stroke-width: 2; stroke: #808080" d="M 994.992,585.122 A 10,10 0 0 0 984.992,575.122"/>
    <line style="fill: none; fill-opacity:0; stroke-width: 2; stroke: #808080" x1="847.892" y1="585.122" x2="847.892" y2="652.278"/>
    <line style="fill: none; fill-opacity:0; stroke-width: 2; stroke: #808080" x1="994.992" y1="585.122" x2="994.992" y2="652.278"/>
    <path style="fill: none; fill-opacity:0; stroke-width: 2; stroke: #808080" d="M 847.892,652.278 A 10,10 0 0 0 857.892,662.278"/>
    <path style="fill: none; fill-opacity:0; stroke-width: 2; stroke: #808080" d="M 984.992,662.278 A 10,10 0 0 0 994.992,652.278"/>
    <text font-size="18.0622" style="fill: #404040;text-anchor:middle;font-family:sans-serif;font-style:normal;font-weight:700" x="921.442" y="612.872">
      <tspan x="921.442" y="612.872">Source</tspan>
      <tspan x="921.442" y="635.45">repository</tspan>
    </text>
  </g>
  <g>
    <rect style="fill: #d0e8ff" x="1184.14" y="439.736" width="152.2" height="87.1556"/>
    <path style="fill: #d0e8ff" d="M 1184.14,439.736 A 10,10 0 0 0 1174.14,449.736 L 1184.14,449.736 z"/>
    <path style="fill: #d0e8ff" d="M 1346.34,449.736 A 10,10 0 0 0 1336.34,439.736 L 1336.34,449.736 z"/>
    <rect style="fill: #d0e8ff" x="1174.14" y="449.736" width="172.2" height="67.1556"/>
    <path style="fill: #d0e8ff" d="M 1174.14,516.892 A 10,10 0 0 0 1184.14,526.892 L 1184.14,516.892 z"/>
    <path style="fill: #d0e8ff" d="M 1336.34,526.892 A 10,10 0 0 0 1346.34,516.892 L 1336.34,516.892 z"/>
    <line style="fill: none; fill-opacity:0; stroke-width: 2; stroke: #808080" x1="1184.14" y1="439.736" x2="1336.34" y2="439.736"/>
    <line style="fill: none; fill-opacity:0; stroke-width: 2; stroke: #808080" x1="1184.14" y1="526.892" x2="1336.34" y2="526.892"/>
    <path style="fill: none; fill-opacity:0; stroke-width: 2; stroke: #808080" d="M 1184.14,439.736 A 10,10 0 0 0 1174.14,449.736"/>
    <path style="fill: none; fill-opacity:0; stroke-width: 2; stroke: #808080" d="M 1346.34,449.736 A 10,10 0 0 0 1336.34,439.736"/>
    <line style="fill: none; fill-opacity:0; stroke-width: 2; stroke: #808080" x1="1174.14" y1="449.736" x2="1174.14" y2="516.892"/>
    <line style="fill: none; fill-opacity:0; stroke-width: 2; stroke: #808080" x1="1346.34" y1="449.736" x2="1346.34" y2="516.892"/>
    <path style="fill: none; fill-opacity:0; stroke-width: 2; stroke: #808080" d="M 1174.14,516.892 A 10,10 0 0 0 1184.14,526.892"/>
    <path style="fill: none; fill-opacity:0; stroke-width: 2; stroke: #808080" d="M 1336.34,526.892 A 10,10 0 0 0 1346.34,516.892"/>
    <text font-size="18.0622" style="fill: #404040;text-anchor:middle;font-family:sans-serif;font-style:normal;font-weight:700" x="1260.24" y="477.486">
      <tspan x="1260.24" y="477.486">Bug tracking</tspan>
      <tspan x="1260.24" y="500.064">system</tspan>
    </text>
  </g>
  <g>
    <rect style="fill: #d0e8ff" x="1171.55" y="153.668" width="177.8" height="87.1556"/>
    <path style="fill: #d0e8ff" d="M 1171.55,153.668 A 10,10 0 0 0 1161.55,163.668 L 1171.55,163.668 z"/>
    <path style="fill: #d0e8ff" d="M 1359.35,163.668 A 10,10 0 0 0 1349.35,153.668 L 1349.35,163.668 z"/>
    <rect style="fill: #d0e8ff" x="1161.55" y="163.668" width="197.8" height="67.1556"/>
    <path style="fill: #d0e8ff" d="M 1161.55,230.824 A 10,10 0 0 0 1171.55,240.824 L 1171.55,230.824 z"/>
    <path style="fill: #d0e8ff" d="M 1349.35,240.824 A 10,10 0 0 0 1359.35,230.824 L 1349.35,230.824 z"/>
    <line style="fill: none; fill-opacity:0; stroke-width: 2; stroke: #808080" x1="1171.55" y1="153.668" x2="1349.35" y2="153.668"/>
    <line style="fill: none; fill-opacity:0; stroke-width: 2; stroke: #808080" x1="1171.55" y1="240.824" x2="1349.35" y2="240.824"/>
    <path style="fill: none; fill-opacity:0; stroke-width: 2; stroke: #808080" d="M 1171.55,153.668 A 10,10 0 0 0 1161.55,163.668"/>
    <path style="fill: none; fill-opacity:0; stroke-width: 2; stroke: #808080" d="M 1359.35,163.668 A 10,10 0 0 0 1349.35,153.668"/>
    <line style="fill: none; fill-opacity:0; stroke-width: 2; stroke: #808080" x1="1161.55" y1="163.668" x2="1161.55" y2="230.824"/>
    <line style="fill: none; fill-opacity:0; stroke-width: 2; stroke: #808080" x1="1359.35" y1="163.668" x2="1359.35" y2="230.824"/>
    <path style="fill: none; fill-opacity:0; stroke-width: 2; stroke: #808080" d="M 1161.55,230.824 A 10,10 0 0 0 1171.55,240.824"/>
    <path style="fill: none; fill-opacity:0; stroke-width: 2; stroke: #808080" d="M 1349.35,240.824 A 10,10 0 0 0 1359.35,230.824"/>
    <text font-size="18.0622" style="fill: #404040;text-anchor:middle;font-family:sans-serif;font-style:normal;font-weight:700" x="1260.45" y="202.707">
      <tspan x="1260.45" y="202.707">Documentation</tspan>
    </text>
  </g>
  <g>
    <rect style="fill: #d0e8ff" x="873.46" y="58.1226" width="96.5" height="87.1556"/>
    <path style="fill: #d0e8ff" d="M 873.46,58.1226 A 10,10 0 0 0 863.46,68.1226 L 873.46,68.1226 z"/>
    <path style="fill: #d0e8ff" d="M 979.96,68.1226 A 10,10 0 0 0 969.96,58.1226 L 969.96,68.1226 z"/>
    <rect style="fill: #d0e8ff" x="863.46" y="68.1226" width="116.5" height="67.1556"/>
    <path style="fill: #d0e8ff" d="M 863.46,135.278 A 10,10 0 0 0 873.46,145.278 L 873.46,135.278 z"/>
    <path style="fill: #d0e8ff" d="M 969.96,145.278 A 10,10 0 0 0 979.96,135.278 L 969.96,135.278 z"/>
    <line style="fill: none; fill-opacity:0; stroke-width: 2; stroke: #808080" x1="873.46" y1="58.1226" x2="969.96" y2="58.1226"/>
    <line style="fill: none; fill-opacity:0; stroke-width: 2; stroke: #808080" x1="873.46" y1="145.278" x2="969.96" y2="145.278"/>
    <path style="fill: none; fill-opacity:0; stroke-width: 2; stroke: #808080" d="M 873.46,58.1226 A 10,10 0 0 0 863.46,68.1226"/>
    <path style="fill: none; fill-opacity:0; stroke-width: 2; stroke: #808080" d="M 979.96,68.1226 A 10,10 0 0 0 969.96,58.1226"/>
    <line style="fill: none; fill-opacity:0; stroke-width: 2; stroke: #808080" x1="863.46" y1="68.1226" x2="863.46" y2="135.278"/>
    <line style="fill: none; fill-opacity:0; stroke-width: 2; stroke: #808080" x1="979.96" y1="68.1226" x2="979.96" y2="135.278"/>
    <path style="fill: none; fill-opacity:0; stroke-width: 2; stroke: #808080" d="M 863.46,135.278 A 10,10 0 0 0 873.46,145.278"/>
    <path style="fill: none; fill-opacity:0; stroke-width: 2; stroke: #808080" d="M 969.96,145.278 A 10,10 0 0 0 979.96,135.278"/>
    <text font-size="18.0622" style="fill: #404040;text-anchor:middle;font-family:sans-serif;font-style:normal;font-weight:700" x="921.71" y="95.8726">
      <tspan x="921.71" y="95.8726">Mailing</tspan>
      <tspan x="921.71" y="118.45">list</tspan>
    </text>
  </g>
  <g>
    <rect style="fill: #ffffff" x="963.324" y="367.6" width="120.65" height="24.5778"/>
    <rect style="fill: none; fill-opacity:0; stroke-width: 2; stroke: #ffffff" x="963.324" y="367.6" width="120.65" height="24.5778"/>
    <text font-size="18.0622" style="fill: #404040;text-anchor:middle;font-family:sans-serif;font-style:normal;font-weight:700" x="1023.65" y="385.35">
      <tspan x="1023.65" y="385.35">Developers</tspan>
    </text>
  </g>
  <g>
    <rect style="fill: #ffffff" x="779.3" y="326.6" width="118.7" height="156.4"/>
    <path style="fill: #ffffff" d="M 779.3,326.6 A 10,10 0 0 0 769.3,336.6 L 779.3,336.6 z"/>
    <path style="fill: #ffffff" d="M 908,336.6 A 10,10 0 0 0 898,326.6 L 898,336.6 z"/>
    <rect style="fill: #ffffff" x="769.3" y="336.6" width="138.7" height="136.4"/>
    <path style="fill: #ffffff" d="M 769.3,473 A 10,10 0 0 0 779.3,483 L 779.3,473 z"/>
    <path style="fill: #ffffff" d="M 898,483 A 10,10 0 0 0 908,473 L 898,473 z"/>
    <line style="fill: none; fill-opacity:0; stroke-width: 2; stroke: #808080" x1="779.3" y1="326.6" x2="898" y2="326.6"/>
    <line style="fill: none; fill-opacity:0; stroke-width: 2; stroke: #808080" x1="779.3" y1="483" x2="898" y2="483"/>
    <path style="fill: none; fill-opacity:0; stroke-width: 2; stroke: #808080" d="M 779.3,326.6 A 10,10 0 0 0 769.3,336.6"/>
    <path style="fill: none; fill-opacity:0; stroke-width: 2; stroke: #808080" d="M 908,336.6 A 10,10 0 0 0 898,326.6"/>
    <line style="fill: none; fill-opacity:0; stroke-width: 2; stroke: #808080" x1="769.3" y1="336.6" x2="769.3" y2="473"/>
    <line style="fill: none; fill-opacity:0; stroke-width: 2; stroke: #808080" x1="908" y1="336.6" x2="908" y2="473"/>
    <path style="fill: none; fill-opacity:0; stroke-width: 2; stroke: #808080" d="M 769.3,473 A 10,10 0 0 0 779.3,483"/>
    <path style="fill: none; fill-opacity:0; stroke-width: 2; stroke: #808080" d="M 898,483 A 10,10 0 0 0 908,473"/>
    <text font-size="18.0622" style="fill: #404040;text-anchor:middle;font-family:sans-serif;font-style:normal;font-weight:700" x="838.65" y="410.261">
      <tspan x="838.65" y="410.261"></tspan>
    </text>
  </g>
  <g>
    <rect style="fill: #ffffff" x="774.974" y="450.6" width="127.35" height="24.5778"/>
    <rect style="fill: none; fill-opacity:0; stroke-width: 2; stroke: #ffffff" x="774.974" y="450.6" width="127.35" height="24.5778"/>
    <text font-size="18.0622" style="fill: #404040;text-anchor:middle;font-family:sans-serif;font-style:normal;font-weight:700" x="838.649" y="468.35">
      <tspan x="838.649" y="468.35">Integrators</tspan>
    </text>
  </g>
  <g>
    <path style="fill: #cf0e30" d="M 794.478 393.165 L 794.957,393.644 L 792.842,396.774 L 792.842,397.973 L 795.677,399.663 L 796.626,399.423 L 798.523,395.563 L 799.232,396.043 L 805.861,382.806 L 805.861,402.073 L 807.279,402.073 L 799.232,429.529 L 800.431,430.499 L 796.386,431.219 L 793.78,433.149 L 793.78,435.308 L 806.101,435.308 L 806.33,433.389 L 806.101,431.938 L 807.518,431.698 L 814.377,410.262 L 821.257,431.698 L 822.675,431.938 L 822.435,433.628 L 822.915,435.308 L 834.985,435.308 L 834.985,433.149 L 832.368,431.219 L 828.345,430.499 L 829.304,429.529 L 821.486,402.073 L 822.915,402.073 L 822.915,382.806 L 829.304,396.294 L 830.013,395.563 L 831.91,399.423 L 833.099,399.663 L 835.934,397.973 L 835.934,396.774 L 833.796,393.644 L 834.276,393.165 L 824.092,372.687 L 818.182,372.687 L 816.274,370.757 L 811.782,370.757 L 810.124,372.687 L 804.683,372.687 L 794.478,393.165z"/>
    <path style="fill: #cf0e30" d="M 794.739 393.394 L 795.208,393.884 L 793.082,397.014 L 793.082,398.224 L 795.906,399.903 L 796.855,399.663 L 798.752,395.803 L 799.471,396.294 L 806.101,383.046 L 806.101,402.313 L 807.518,402.313 L 799.471,429.779 L 800.649,430.739 L 796.626,431.469 L 794.02,433.389 L 794.02,435.558 L 806.33,435.558 L 806.57,433.628 L 806.33,432.178 L 807.758,431.938 L 814.628,410.512 L 821.486,431.938 L 822.915,432.178 L 822.675,433.868 L 823.144,435.558 L 835.225,435.558 L 835.225,433.389 L 832.619,431.469 L 828.595,430.739 L 829.544,429.779 L 821.737,402.313 L 823.144,402.313 L 823.144,383.046 L 829.544,396.534 L 830.253,395.803 L 832.15,399.663 L 833.317,399.903 L 836.174,398.224 L 836.174,397.014 L 834.036,393.884 L 834.516,393.394 L 824.343,372.916 L 818.4,372.916 L 816.514,371.008 L 812.022,371.008 L 810.353,372.916 L 804.902,372.916 L 794.739,393.394z"/>
    <path style="fill: none; fill-opacity:0; stroke-width: 0.02; stroke: #ff637e" d="M 794.739 393.394 L 795.208,393.884 L 793.082,397.014 L 793.082,398.224 L 795.906,399.903 L 796.855,399.663 L 798.752,395.803 L 799.471,396.294 L 806.101,383.046 L 806.101,402.313 L 807.518,402.313 L 799.471,429.779 L 800.649,430.739 L 796.626,431.469 L 794.02,433.389 L 794.02,435.558 L 806.33,435.558 L 806.57,433.628 L 806.33,432.178 L 807.758,431.938 L 814.628,410.512 L 821.486,431.938 L 822.915,432.178 L 822.675,433.868 L 823.144,435.558 L 835.225,435.558 L 835.225,433.389 L 832.619,431.469 L 828.595,430.739 L 829.544,429.779 L 821.737,402.313 L 823.144,402.313 L 823.144,383.046 L 829.544,396.534 L 830.253,395.803 L 832.15,399.663 L 833.317,399.903 L 836.174,398.224 L 836.174,397.014 L 834.036,393.884 L 834.516,393.394 L 824.343,372.916 L 818.4,372.916 L 816.514,371.008 L 812.022,371.008 L 810.353,372.916 L 804.902,372.916 L 794.739,393.394"/>
    <path style="fill: #cf0e30" d="M 815.576 358 L 812.97,358 L 811.782,358.229 L 809.874,359.919 L 809.645,361.609 L 809.645,363.768 L 809.405,364.739 L 809.405,365.698 L 810.593,370.027 L 811.782,371.237 L 814.377,371.717 L 816.754,371.237 L 817.921,370.027 L 818.891,367.137 L 819.349,365.698 L 819.349,364.739 L 818.891,363.768 L 818.891,361.609 L 818.651,359.919 L 816.754,358.229 L 815.576,358z"/>
    <path style="fill: #cf0e30" d="M 815.805 358.229 L 813.199,358.229 L 812.022,358.469 L 810.124,360.148 L 809.874,361.838 L 809.874,364.008 L 809.645,364.967 L 809.645,365.938 L 810.833,370.267 L 812.022,371.488 L 814.628,371.968 L 816.994,371.488 L 818.182,370.267 L 819.12,367.377 L 819.6,365.938 L 819.6,364.967 L 819.12,364.008 L 819.12,361.838 L 818.891,360.148 L 816.994,358.469 L 815.805,358.229z"/>
    <path style="fill: none; fill-opacity:0; stroke-width: 0.02; stroke: #ff637e" d="M 815.805 358.229 L 813.199,358.229 L 812.022,358.469 L 810.124,360.148 L 809.874,361.838 L 809.874,364.008 L 809.645,364.967 L 809.645,365.938 L 810.833,370.267 L 812.022,371.488 L 814.628,371.968 L 816.994,371.488 L 818.182,370.267 L 819.12,367.377 L 819.6,365.938 L 819.6,364.967 L 819.12,364.008 L 819.12,361.838 L 818.891,360.148 L 816.994,358.469 L 815.805,358.229"/>
  </g>
  <g>
    <path style="fill: #cf0e30" d="M 842.946 393.775 L 843.425,394.254 L 841.31,397.384 L 841.31,398.583 L 844.145,400.273 L 845.094,400.033 L 846.991,396.173 L 847.7,396.653 L 854.329,383.416 L 854.329,402.683 L 855.747,402.683 L 847.7,430.139 L 848.899,431.109 L 844.854,431.829 L 842.248,433.759 L 842.248,435.918 L 854.569,435.918 L 854.798,433.999 L 854.569,432.548 L 855.986,432.308 L 862.845,410.872 L 869.725,432.308 L 871.143,432.548 L 870.903,434.238 L 871.383,435.918 L 883.453,435.918 L 883.453,433.759 L 880.836,431.829 L 876.813,431.109 L 877.772,430.139 L 869.954,402.683 L 871.383,402.683 L 871.383,383.416 L 877.772,396.904 L 878.481,396.173 L 880.378,400.033 L 881.567,400.273 L 884.402,398.583 L 884.402,397.384 L 882.264,394.254 L 882.744,393.775 L 872.56,373.297 L 866.65,373.297 L 864.742,371.367 L 860.25,371.367 L 858.592,373.297 L 853.151,373.297 L 842.946,393.775z"/>
    <path style="fill: #cf0e30" d="M 843.207 394.004 L 843.676,394.494 L 841.55,397.624 L 841.55,398.834 L 844.374,400.513 L 845.323,400.273 L 847.22,396.413 L 847.939,396.904 L 854.569,383.656 L 854.569,402.923 L 855.986,402.923 L 847.939,430.389 L 849.117,431.349 L 845.094,432.079 L 842.488,433.999 L 842.488,436.168 L 854.798,436.168 L 855.038,434.238 L 854.798,432.788 L 856.226,432.548 L 863.096,411.122 L 869.954,432.548 L 871.383,432.788 L 871.143,434.478 L 871.612,436.168 L 883.693,436.168 L 883.693,433.999 L 881.087,432.079 L 877.063,431.349 L 878.012,430.389 L 870.205,402.923 L 871.612,402.923 L 871.612,383.656 L 878.012,397.144 L 878.721,396.413 L 880.618,400.273 L 881.785,400.513 L 884.642,398.834 L 884.642,397.624 L 882.504,394.494 L 882.984,394.004 L 872.811,373.526 L 866.868,373.526 L 864.982,371.618 L 860.49,371.618 L 858.821,373.526 L 853.37,373.526 L 843.207,394.004z"/>
    <path style="fill: none; fill-opacity:0; stroke-width: 0.02; stroke: #ff637e" d="M 843.207 394.004 L 843.676,394.494 L 841.55,397.624 L 841.55,398.834 L 844.374,400.513 L 845.323,400.273 L 847.22,396.413 L 847.939,396.904 L 854.569,383.656 L 854.569,402.923 L 855.986,402.923 L 847.939,430.389 L 849.117,431.349 L 845.094,432.079 L 842.488,433.999 L 842.488,436.168 L 854.798,436.168 L 855.038,434.238 L 854.798,432.788 L 856.226,432.548 L 863.096,411.122 L 869.954,432.548 L 871.383,432.788 L 871.143,434.478 L 871.612,436.168 L 883.693,436.168 L 883.693,433.999 L 881.087,432.079 L 877.063,431.349 L 878.012,430.389 L 870.205,402.923 L 871.612,402.923 L 871.612,383.656 L 878.012,397.144 L 878.721,396.413 L 880.618,400.273 L 881.785,400.513 L 884.642,398.834 L 884.642,397.624 L 882.504,394.494 L 882.984,394.004 L 872.811,373.526 L 866.868,373.526 L 864.982,371.618 L 860.49,371.618 L 858.821,373.526 L 853.37,373.526 L 843.207,394.004"/>
    <path style="fill: #cf0e30" d="M 864.044 358.61 L 861.438,358.61 L 860.25,358.839 L 858.342,360.529 L 858.113,362.219 L 858.113,364.378 L 857.873,365.349 L 857.873,366.308 L 859.061,370.637 L 860.25,371.847 L 862.845,372.327 L 865.222,371.847 L 866.389,370.637 L 867.359,367.747 L 867.817,366.308 L 867.817,365.349 L 867.359,364.378 L 867.359,362.219 L 867.119,360.529 L 865.222,358.839 L 864.044,358.61z"/>
    <path style="fill: #cf0e30" d="M 864.273 358.839 L 861.667,358.839 L 860.49,359.079 L 858.592,360.758 L 858.342,362.448 L 858.342,364.618 L 858.113,365.577 L 858.113,366.548 L 859.301,370.877 L 860.49,372.098 L 863.096,372.578 L 865.462,372.098 L 866.65,370.877 L 867.588,367.987 L 868.068,366.548 L 868.068,365.577 L 867.588,364.618 L 867.588,362.448 L 867.359,360.758 L 865.462,359.079 L 864.273,358.839z"/>
    <path style="fill: none; fill-opacity:0; stroke-width: 0.02; stroke: #ff637e" d="M 864.273 358.839 L 861.667,358.839 L 860.49,359.079 L 858.592,360.758 L 858.342,362.448 L 858.342,364.618 L 858.113,365.577 L 858.113,366.548 L 859.301,370.877 L 860.49,372.098 L 863.096,372.578 L 865.462,372.098 L 866.65,370.877 L 867.588,367.987 L 868.068,366.548 L 868.068,365.577 L 867.588,364.618 L 867.588,362.448 L 867.359,360.758 L 865.462,359.079 L 864.273,358.839"/>
  </g>
  <g>
    <path style="fill: #00b4ff" d="M 1005.85 285.143 L 1006.28,285.578 L 1004.36,288.412 L 1004.36,289.499 L 1006.91,291.029 L 1007.78,290.812 L 1009.5,287.316 L 1010.14,287.75 L 1016.15,275.761 L 1016.15,293.212 L 1017.43,293.212 L 1010.14,318.081 L 1011.22,318.96 L 1007.57,319.611 L 1005.21,321.36 L 1005.21,323.315 L 1016.37,323.315 L 1016.57,321.577 L 1016.37,320.263 L 1017.65,320.046 L 1023.87,300.629 L 1030.09,320.046 L 1031.38,320.263 L 1031.16,321.794 L 1031.59,323.315 L 1042.52,323.315 L 1042.52,321.36 L 1040.17,319.611 L 1036.51,318.96 L 1037.38,318.081 L 1030.3,293.212 L 1031.59,293.212 L 1031.59,275.761 L 1037.38,287.978 L 1038.02,287.316 L 1039.73,290.812 L 1040.81,291.029 L 1043.39,289.499 L 1043.39,288.412 L 1041.45,285.578 L 1041.89,285.143 L 1032.66,266.595 L 1027.3,266.595 L 1025.58,264.847 L 1021.51,264.847 L 1020.01,266.595 L 1015.08,266.595 L 1005.85,285.143z"/>
    <path style="fill: #00b4ff" d="M 1006.06 285.351 L 1006.5,285.795 L 1004.56,288.629 L 1004.56,289.726 L 1007.14,291.247 L 1008,291.029 L 1009.71,287.533 L 1010.35,287.978 L 1016.37,275.978 L 1016.37,293.429 L 1017.65,293.429 L 1010.35,318.308 L 1011.43,319.177 L 1007.78,319.839 L 1005.42,321.577 L 1005.42,323.542 L 1016.57,323.542 L 1016.79,321.794 L 1016.57,320.481 L 1017.87,320.263 L 1024.09,300.856 L 1030.3,320.263 L 1031.59,320.481 L 1031.38,322.011 L 1031.8,323.542 L 1042.75,323.542 L 1042.75,321.577 L 1040.38,319.839 L 1036.74,319.177 L 1037.59,318.308 L 1030.52,293.429 L 1031.8,293.429 L 1031.8,275.978 L 1037.59,288.195 L 1038.23,287.533 L 1039.96,291.029 L 1041.03,291.247 L 1043.59,289.726 L 1043.59,288.629 L 1041.67,285.795 L 1042.09,285.351 L 1032.88,266.803 L 1027.52,266.803 L 1025.8,265.074 L 1021.72,265.074 L 1020.23,266.803 L 1015.28,266.803 L 1006.06,285.351z"/>
    <path style="fill: none; fill-opacity:0; stroke-width: 0.02; stroke: #aae6ff" d="M 1006.06 285.351 L 1006.5,285.795 L 1004.56,288.629 L 1004.56,289.726 L 1007.14,291.247 L 1008,291.029 L 1009.71,287.533 L 1010.35,287.978 L 1016.37,275.978 L 1016.37,293.429 L 1017.65,293.429 L 1010.35,318.308 L 1011.43,319.177 L 1007.78,319.839 L 1005.42,321.577 L 1005.42,323.542 L 1016.57,323.542 L 1016.79,321.794 L 1016.57,320.481 L 1017.87,320.263 L 1024.09,300.856 L 1030.3,320.263 L 1031.59,320.481 L 1031.38,322.011 L 1031.8,323.542 L 1042.75,323.542 L 1042.75,321.577 L 1040.38,319.839 L 1036.74,319.177 L 1037.59,318.308 L 1030.52,293.429 L 1031.8,293.429 L 1031.8,275.978 L 1037.59,288.195 L 1038.23,287.533 L 1039.96,291.029 L 1041.03,291.247 L 1043.59,289.726 L 1043.59,288.629 L 1041.67,285.795 L 1042.09,285.351 L 1032.88,266.803 L 1027.52,266.803 L 1025.8,265.074 L 1021.72,265.074 L 1020.23,266.803 L 1015.28,266.803 L 1006.06,285.351"/>
    <path style="fill: #00b4ff" d="M 1024.94 253.292 L 1022.59,253.292 L 1021.51,253.499 L 1019.79,255.03 L 1019.58,256.561 L 1019.58,258.517 L 1019.37,259.396 L 1019.37,260.265 L 1020.43,264.186 L 1021.51,265.282 L 1023.87,265.716 L 1026.01,265.282 L 1027.08,264.186 L 1027.94,261.568 L 1028.38,260.265 L 1028.38,259.396 L 1027.94,258.517 L 1027.94,256.561 L 1027.73,255.03 L 1026.01,253.499 L 1024.94,253.292z"/>
    <path style="fill: #00b4ff" d="M 1025.16 253.499 L 1022.8,253.499 L 1021.72,253.717 L 1020.01,255.238 L 1019.79,256.768 L 1019.79,258.734 L 1019.58,259.603 L 1019.58,260.482 L 1020.65,264.403 L 1021.72,265.509 L 1024.09,265.944 L 1026.23,265.509 L 1027.3,264.403 L 1028.16,261.786 L 1028.59,260.482 L 1028.59,259.603 L 1028.16,258.734 L 1028.16,256.768 L 1027.94,255.238 L 1026.23,253.717 L 1025.16,253.499z"/>
    <path style="fill: none; fill-opacity:0; stroke-width: 0.02; stroke: #aae6ff" d="M 1025.16 253.499 L 1022.8,253.499 L 1021.72,253.717 L 1020.01,255.238 L 1019.79,256.768 L 1019.79,258.734 L 1019.58,259.603 L 1019.58,260.482 L 1020.65,264.403 L 1021.72,265.509 L 1024.09,265.944 L 1026.23,265.509 L 1027.3,264.403 L 1028.16,261.786 L 1028.59,260.482 L 1028.59,259.603 L 1028.16,258.734 L 1028.16,256.768 L 1027.94,255.238 L 1026.23,253.717 L 1025.16,253.499"/>
  </g>
  <g>
    <path style="fill: #00b4ff" d="M 963.437 285.301 L 963.872,285.736 L 961.946,288.57 L 961.946,289.657 L 964.504,291.187 L 965.373,290.97 L 967.092,287.474 L 967.734,287.908 L 973.738,275.919 L 973.738,293.37 L 975.022,293.37 L 967.734,318.239 L 968.81,319.118 L 965.156,319.769 L 962.795,321.518 L 962.795,323.473 L 973.956,323.473 L 974.163,321.735 L 973.956,320.421 L 975.24,320.204 L 981.462,300.787 L 987.684,320.204 L 988.968,320.421 L 988.75,321.952 L 989.185,323.473 L 1000.11,323.473 L 1000.11,321.518 L 997.757,319.769 L 994.103,319.118 L 994.972,318.239 L 987.891,293.37 L 989.185,293.37 L 989.185,275.919 L 994.972,288.136 L 995.614,287.474 L 997.323,290.97 L 998.399,291.187 L 1000.98,289.657 L 1000.98,288.57 L 999.041,285.736 L 999.476,285.301 L 990.252,266.753 L 984.889,266.753 L 983.17,265.005 L 979.101,265.005 L 977.6,266.753 L 972.672,266.753 L 963.437,285.301z"/>
    <path style="fill: #00b4ff" d="M 963.655 285.509 L 964.089,285.953 L 962.153,288.787 L 962.153,289.884 L 964.731,291.405 L 965.59,291.187 L 967.299,287.691 L 967.941,288.136 L 973.956,276.136 L 973.956,293.587 L 975.24,293.587 L 967.941,318.466 L 969.017,319.335 L 965.373,319.997 L 963.013,321.735 L 963.013,323.7 L 974.163,323.7 L 974.38,321.952 L 974.163,320.639 L 975.457,320.421 L 981.679,301.014 L 987.891,320.421 L 989.185,320.639 L 988.968,322.169 L 989.392,323.7 L 1000.34,323.7 L 1000.34,321.735 L 997.975,319.997 L 994.33,319.335 L 995.18,318.466 L 988.108,293.587 L 989.392,293.587 L 989.392,276.136 L 995.18,288.353 L 995.822,287.691 L 997.55,291.187 L 998.617,291.405 L 1001.18,289.884 L 1001.18,288.787 L 999.259,285.953 L 999.683,285.509 L 990.469,266.961 L 985.106,266.961 L 983.387,265.232 L 979.309,265.232 L 977.817,266.961 L 972.869,266.961 L 963.655,285.509z"/>
    <path style="fill: none; fill-opacity:0; stroke-width: 0.02; stroke: #aae6ff" d="M 963.655 285.509 L 964.089,285.953 L 962.153,288.787 L 962.153,289.884 L 964.731,291.405 L 965.59,291.187 L 967.299,287.691 L 967.941,288.136 L 973.956,276.136 L 973.956,293.587 L 975.24,293.587 L 967.941,318.466 L 969.017,319.335 L 965.373,319.997 L 963.013,321.735 L 963.013,323.7 L 974.163,323.7 L 974.38,321.952 L 974.163,320.639 L 975.457,320.421 L 981.679,301.014 L 987.891,320.421 L 989.185,320.639 L 988.968,322.169 L 989.392,323.7 L 1000.34,323.7 L 1000.34,321.735 L 997.975,319.997 L 994.33,319.335 L 995.18,318.466 L 988.108,293.587 L 989.392,293.587 L 989.392,276.136 L 995.18,288.353 L 995.822,287.691 L 997.55,291.187 L 998.617,291.405 L 1001.18,289.884 L 1001.18,288.787 L 999.259,285.953 L 999.683,285.509 L 990.469,266.961 L 985.106,266.961 L 983.387,265.232 L 979.309,265.232 L 977.817,266.961 L 972.869,266.961 L 963.655,285.509"/>
    <path style="fill: #00b4ff" d="M 982.528 253.45 L 980.178,253.45 L 979.101,253.657 L 977.383,255.188 L 977.165,256.719 L 977.165,258.675 L 976.958,259.554 L 976.958,260.423 L 978.025,264.344 L 979.101,265.44 L 981.462,265.874 L 983.605,265.44 L 984.671,264.344 L 985.531,261.726 L 985.965,260.423 L 985.965,259.554 L 985.531,258.675 L 985.531,256.719 L 985.323,255.188 L 983.605,253.657 L 982.528,253.45z"/>
    <path style="fill: #00b4ff" d="M 982.746 253.657 L 980.385,253.657 L 979.309,253.875 L 977.6,255.396 L 977.383,256.926 L 977.383,258.892 L 977.165,259.761 L 977.165,260.64 L 978.242,264.561 L 979.309,265.667 L 981.679,266.102 L 983.822,265.667 L 984.889,264.561 L 985.748,261.944 L 986.182,260.64 L 986.182,259.761 L 985.748,258.892 L 985.748,256.926 L 985.531,255.396 L 983.822,253.875 L 982.746,253.657z"/>
    <path style="fill: none; fill-opacity:0; stroke-width: 0.02; stroke: #aae6ff" d="M 982.746 253.657 L 980.385,253.657 L 979.309,253.875 L 977.6,255.396 L 977.383,256.926 L 977.383,258.892 L 977.165,259.761 L 977.165,260.64 L 978.242,264.561 L 979.309,265.667 L 981.679,266.102 L 983.822,265.667 L 984.889,264.561 L 985.748,261.944 L 986.182,260.64 L 986.182,259.761 L 985.748,258.892 L 985.748,256.926 L 985.531,255.396 L 983.822,253.875 L 982.746,253.657"/>
  </g>
  <g>
    <path style="fill: #00b4ff" d="M 1048.19 285.583 L 1048.63,286.018 L 1046.7,288.852 L 1046.7,289.939 L 1049.26,291.469 L 1050.13,291.252 L 1051.85,287.756 L 1052.49,288.19 L 1058.49,276.201 L 1058.49,293.652 L 1059.78,293.652 L 1052.49,318.521 L 1053.56,319.4 L 1049.91,320.051 L 1047.55,321.8 L 1047.55,323.755 L 1058.71,323.755 L 1058.92,322.017 L 1058.71,320.703 L 1059.99,320.486 L 1066.22,301.069 L 1072.44,320.486 L 1073.72,320.703 L 1073.5,322.234 L 1073.94,323.755 L 1084.86,323.755 L 1084.86,321.8 L 1082.51,320.051 L 1078.86,319.4 L 1079.73,318.521 L 1072.65,293.652 L 1073.94,293.652 L 1073.94,276.201 L 1079.73,288.418 L 1080.37,287.756 L 1082.08,291.252 L 1083.15,291.469 L 1085.73,289.939 L 1085.73,288.852 L 1083.8,286.018 L 1084.23,285.583 L 1075.01,267.035 L 1069.64,267.035 L 1067.92,265.287 L 1063.86,265.287 L 1062.35,267.035 L 1057.43,267.035 L 1048.19,285.583z"/>
    <path style="fill: #00b4ff" d="M 1048.41 285.791 L 1048.84,286.235 L 1046.91,289.069 L 1046.91,290.166 L 1049.49,291.687 L 1050.34,291.469 L 1052.05,287.973 L 1052.69,288.418 L 1058.71,276.418 L 1058.71,293.869 L 1059.99,293.869 L 1052.69,318.748 L 1053.77,319.617 L 1050.13,320.279 L 1047.77,322.017 L 1047.77,323.982 L 1058.92,323.982 L 1059.13,322.234 L 1058.92,320.921 L 1060.21,320.703 L 1066.43,301.296 L 1072.65,320.703 L 1073.94,320.921 L 1073.72,322.451 L 1074.15,323.982 L 1085.09,323.982 L 1085.09,322.017 L 1082.73,320.279 L 1079.08,319.617 L 1079.93,318.748 L 1072.86,293.869 L 1074.15,293.869 L 1074.15,276.418 L 1079.93,288.635 L 1080.58,287.973 L 1082.3,291.469 L 1083.37,291.687 L 1085.94,290.166 L 1085.94,289.069 L 1084.01,286.235 L 1084.44,285.791 L 1075.22,267.243 L 1069.86,267.243 L 1068.14,265.514 L 1064.06,265.514 L 1062.57,267.243 L 1057.62,267.243 L 1048.41,285.791z"/>
    <path style="fill: none; fill-opacity:0; stroke-width: 0.02; stroke: #aae6ff" d="M 1048.41 285.791 L 1048.84,286.235 L 1046.91,289.069 L 1046.91,290.166 L 1049.49,291.687 L 1050.34,291.469 L 1052.05,287.973 L 1052.69,288.418 L 1058.71,276.418 L 1058.71,293.869 L 1059.99,293.869 L 1052.69,318.748 L 1053.77,319.617 L 1050.13,320.279 L 1047.77,322.017 L 1047.77,323.982 L 1058.92,323.982 L 1059.13,322.234 L 1058.92,320.921 L 1060.21,320.703 L 1066.43,301.296 L 1072.65,320.703 L 1073.94,320.921 L 1073.72,322.451 L 1074.15,323.982 L 1085.09,323.982 L 1085.09,322.017 L 1082.73,320.279 L 1079.08,319.617 L 1079.93,318.748 L 1072.86,293.869 L 1074.15,293.869 L 1074.15,276.418 L 1079.93,288.635 L 1080.58,287.973 L 1082.3,291.469 L 1083.37,291.687 L 1085.94,290.166 L 1085.94,289.069 L 1084.01,286.235 L 1084.44,285.791 L 1075.22,267.243 L 1069.86,267.243 L 1068.14,265.514 L 1064.06,265.514 L 1062.57,267.243 L 1057.62,267.243 L 1048.41,285.791"/>
    <path style="fill: #00b4ff" d="M 1067.28 253.732 L 1064.93,253.732 L 1063.86,253.939 L 1062.14,255.47 L 1061.92,257.001 L 1061.92,258.957 L 1061.71,259.836 L 1061.71,260.705 L 1062.78,264.626 L 1063.86,265.722 L 1066.22,266.156 L 1068.36,265.722 L 1069.43,264.626 L 1070.28,262.008 L 1070.72,260.705 L 1070.72,259.836 L 1070.28,258.957 L 1070.28,257.001 L 1070.08,255.47 L 1068.36,253.939 L 1067.28,253.732z"/>
    <path style="fill: #00b4ff" d="M 1067.5 253.939 L 1065.14,253.939 L 1064.06,254.157 L 1062.35,255.678 L 1062.14,257.208 L 1062.14,259.174 L 1061.92,260.043 L 1061.92,260.922 L 1063,264.843 L 1064.06,265.949 L 1066.43,266.384 L 1068.58,265.949 L 1069.64,264.843 L 1070.5,262.226 L 1070.94,260.922 L 1070.94,260.043 L 1070.5,259.174 L 1070.5,257.208 L 1070.28,255.678 L 1068.58,254.157 L 1067.5,253.939z"/>
    <path style="fill: none; fill-opacity:0; stroke-width: 0.02; stroke: #aae6ff" d="M 1067.5 253.939 L 1065.14,253.939 L 1064.06,254.157 L 1062.35,255.678 L 1062.14,257.208 L 1062.14,259.174 L 1061.92,260.043 L 1061.92,260.922 L 1063,264.843 L 1064.06,265.949 L 1066.43,266.384 L 1068.58,265.949 L 1069.64,264.843 L 1070.5,262.226 L 1070.94,260.922 L 1070.94,260.043 L 1070.5,259.174 L 1070.5,257.208 L 1070.28,255.678 L 1068.58,254.157 L 1067.5,253.939"/>
  </g>
  <g>
    <path style="fill: #00b4ff" d="M 1027.32 328.279 L 1027.76,328.714 L 1025.83,331.548 L 1025.83,332.635 L 1028.39,334.165 L 1029.26,333.948 L 1030.98,330.452 L 1031.62,330.886 L 1037.62,318.897 L 1037.62,336.348 L 1038.91,336.348 L 1031.62,361.217 L 1032.7,362.096 L 1029.04,362.747 L 1026.68,364.496 L 1026.68,366.451 L 1037.84,366.451 L 1038.05,364.713 L 1037.84,363.399 L 1039.13,363.182 L 1045.35,343.765 L 1051.57,363.182 L 1052.85,363.399 L 1052.64,364.93 L 1053.07,366.451 L 1063.99,366.451 L 1063.99,364.496 L 1061.64,362.747 L 1057.99,362.096 L 1058.86,361.217 L 1051.78,336.348 L 1053.07,336.348 L 1053.07,318.897 L 1058.86,331.114 L 1059.5,330.452 L 1061.21,333.948 L 1062.29,334.165 L 1064.86,332.635 L 1064.86,331.548 L 1062.93,328.714 L 1063.36,328.279 L 1054.14,309.731 L 1048.77,309.731 L 1047.06,307.983 L 1042.99,307.983 L 1041.49,309.731 L 1036.56,309.731 L 1027.32,328.279z"/>
    <path style="fill: #00b4ff" d="M 1027.54 328.487 L 1027.98,328.931 L 1026.04,331.765 L 1026.04,332.862 L 1028.62,334.383 L 1029.48,334.165 L 1031.18,330.669 L 1031.83,331.114 L 1037.84,319.114 L 1037.84,336.565 L 1039.13,336.565 L 1031.83,361.444 L 1032.9,362.313 L 1029.26,362.975 L 1026.9,364.713 L 1026.9,366.678 L 1038.05,366.678 L 1038.27,364.93 L 1038.05,363.617 L 1039.34,363.399 L 1045.56,343.992 L 1051.78,363.399 L 1053.07,363.617 L 1052.85,365.147 L 1053.28,366.678 L 1064.22,366.678 L 1064.22,364.713 L 1061.86,362.975 L 1058.22,362.313 L 1059.07,361.444 L 1051.99,336.565 L 1053.28,336.565 L 1053.28,319.114 L 1059.07,331.331 L 1059.71,330.669 L 1061.44,334.165 L 1062.5,334.383 L 1065.07,332.862 L 1065.07,331.765 L 1063.14,328.931 L 1063.57,328.487 L 1054.35,309.939 L 1048.99,309.939 L 1047.27,308.21 L 1043.19,308.21 L 1041.7,309.939 L 1036.76,309.939 L 1027.54,328.487z"/>
    <path style="fill: none; fill-opacity:0; stroke-width: 0.02; stroke: #aae6ff" d="M 1027.54 328.487 L 1027.98,328.931 L 1026.04,331.765 L 1026.04,332.862 L 1028.62,334.383 L 1029.48,334.165 L 1031.18,330.669 L 1031.83,331.114 L 1037.84,319.114 L 1037.84,336.565 L 1039.13,336.565 L 1031.83,361.444 L 1032.9,362.313 L 1029.26,362.975 L 1026.9,364.713 L 1026.9,366.678 L 1038.05,366.678 L 1038.27,364.93 L 1038.05,363.617 L 1039.34,363.399 L 1045.56,343.992 L 1051.78,363.399 L 1053.07,363.617 L 1052.85,365.147 L 1053.28,366.678 L 1064.22,366.678 L 1064.22,364.713 L 1061.86,362.975 L 1058.22,362.313 L 1059.07,361.444 L 1051.99,336.565 L 1053.28,336.565 L 1053.28,319.114 L 1059.07,331.331 L 1059.71,330.669 L 1061.44,334.165 L 1062.5,334.383 L 1065.07,332.862 L 1065.07,331.765 L 1063.14,328.931 L 1063.57,328.487 L 1054.35,309.939 L 1048.99,309.939 L 1047.27,308.21 L 1043.19,308.21 L 1041.7,309.939 L 1036.76,309.939 L 1027.54,328.487"/>
    <path style="fill: #00b4ff" d="M 1046.41 296.428 L 1044.06,296.428 L 1042.99,296.635 L 1041.27,298.166 L 1041.05,299.697 L 1041.05,301.653 L 1040.84,302.532 L 1040.84,303.401 L 1041.91,307.322 L 1042.99,308.418 L 1045.35,308.852 L 1047.49,308.418 L 1048.56,307.322 L 1049.42,304.704 L 1049.85,303.401 L 1049.85,302.532 L 1049.42,301.653 L 1049.42,299.697 L 1049.21,298.166 L 1047.49,296.635 L 1046.41,296.428z"/>
    <path style="fill: #00b4ff" d="M 1046.63 296.635 L 1044.27,296.635 L 1043.19,296.853 L 1041.49,298.374 L 1041.27,299.904 L 1041.27,301.87 L 1041.05,302.739 L 1041.05,303.618 L 1042.13,307.539 L 1043.19,308.645 L 1045.56,309.08 L 1047.71,308.645 L 1048.77,307.539 L 1049.63,304.922 L 1050.07,303.618 L 1050.07,302.739 L 1049.63,301.87 L 1049.63,299.904 L 1049.42,298.374 L 1047.71,296.853 L 1046.63,296.635z"/>
    <path style="fill: none; fill-opacity:0; stroke-width: 0.02; stroke: #aae6ff" d="M 1046.63 296.635 L 1044.27,296.635 L 1043.19,296.853 L 1041.49,298.374 L 1041.27,299.904 L 1041.27,301.87 L 1041.05,302.739 L 1041.05,303.618 L 1042.13,307.539 L 1043.19,308.645 L 1045.56,309.08 L 1047.71,308.645 L 1048.77,307.539 L 1049.63,304.922 L 1050.07,303.618 L 1050.07,302.739 L 1049.63,301.87 L 1049.63,299.904 L 1049.42,298.374 L 1047.71,296.853 L 1046.63,296.635"/>
  </g>
  <g>
    <path style="fill: #00b4ff" d="M 984.525 328.509 L 984.96,328.944 L 983.034,331.778 L 983.034,332.865 L 985.592,334.395 L 986.461,334.178 L 988.18,330.682 L 988.822,331.116 L 994.826,319.127 L 994.826,336.578 L 996.11,336.578 L 988.822,361.447 L 989.898,362.326 L 986.244,362.977 L 983.883,364.726 L 983.883,366.681 L 995.044,366.681 L 995.251,364.943 L 995.044,363.629 L 996.328,363.412 L 1002.55,343.995 L 1008.77,363.412 L 1010.06,363.629 L 1009.84,365.16 L 1010.27,366.681 L 1021.2,366.681 L 1021.2,364.726 L 1018.85,362.977 L 1015.19,362.326 L 1016.06,361.447 L 1008.98,336.578 L 1010.27,336.578 L 1010.27,319.127 L 1016.06,331.344 L 1016.7,330.682 L 1018.41,334.178 L 1019.49,334.395 L 1022.07,332.865 L 1022.07,331.778 L 1020.13,328.944 L 1020.56,328.509 L 1011.34,309.961 L 1005.98,309.961 L 1004.26,308.213 L 1000.19,308.213 L 998.688,309.961 L 993.76,309.961 L 984.525,328.509z"/>
    <path style="fill: #00b4ff" d="M 984.743 328.717 L 985.177,329.161 L 983.241,331.995 L 983.241,333.092 L 985.819,334.613 L 986.678,334.395 L 988.387,330.899 L 989.029,331.344 L 995.044,319.344 L 995.044,336.795 L 996.328,336.795 L 989.029,361.674 L 990.105,362.543 L 986.461,363.205 L 984.101,364.943 L 984.101,366.908 L 995.251,366.908 L 995.468,365.16 L 995.251,363.847 L 996.545,363.629 L 1002.77,344.222 L 1008.98,363.629 L 1010.27,363.847 L 1010.06,365.377 L 1010.48,366.908 L 1021.42,366.908 L 1021.42,364.943 L 1019.06,363.205 L 1015.42,362.543 L 1016.27,361.674 L 1009.2,336.795 L 1010.48,336.795 L 1010.48,319.344 L 1016.27,331.561 L 1016.91,330.899 L 1018.64,334.395 L 1019.7,334.613 L 1022.27,333.092 L 1022.27,331.995 L 1020.35,329.161 L 1020.77,328.717 L 1011.56,310.169 L 1006.19,310.169 L 1004.48,308.44 L 1000.4,308.44 L 998.905,310.169 L 993.957,310.169 L 984.743,328.717z"/>
    <path style="fill: none; fill-opacity:0; stroke-width: 0.02; stroke: #aae6ff" d="M 984.743 328.717 L 985.177,329.161 L 983.241,331.995 L 983.241,333.092 L 985.819,334.613 L 986.678,334.395 L 988.387,330.899 L 989.029,331.344 L 995.044,319.344 L 995.044,336.795 L 996.328,336.795 L 989.029,361.674 L 990.105,362.543 L 986.461,363.205 L 984.101,364.943 L 984.101,366.908 L 995.251,366.908 L 995.468,365.16 L 995.251,363.847 L 996.545,363.629 L 1002.77,344.222 L 1008.98,363.629 L 1010.27,363.847 L 1010.06,365.377 L 1010.48,366.908 L 1021.42,366.908 L 1021.42,364.943 L 1019.06,363.205 L 1015.42,362.543 L 1016.27,361.674 L 1009.2,336.795 L 1010.48,336.795 L 1010.48,319.344 L 1016.27,331.561 L 1016.91,330.899 L 1018.64,334.395 L 1019.7,334.613 L 1022.27,333.092 L 1022.27,331.995 L 1020.35,329.161 L 1020.77,328.717 L 1011.56,310.169 L 1006.19,310.169 L 1004.48,308.44 L 1000.4,308.44 L 998.905,310.169 L 993.957,310.169 L 984.743,328.717"/>
    <path style="fill: #00b4ff" d="M 1003.62 296.658 L 1001.27,296.658 L 1000.19,296.865 L 998.471,298.396 L 998.253,299.927 L 998.253,301.883 L 998.046,302.762 L 998.046,303.631 L 999.113,307.552 L 1000.19,308.648 L 1002.55,309.082 L 1004.69,308.648 L 1005.76,307.552 L 1006.62,304.934 L 1007.05,303.631 L 1007.05,302.762 L 1006.62,301.883 L 1006.62,299.927 L 1006.41,298.396 L 1004.69,296.865 L 1003.62,296.658z"/>
    <path style="fill: #00b4ff" d="M 1003.83 296.865 L 1001.47,296.865 L 1000.4,297.083 L 998.688,298.604 L 998.471,300.134 L 998.471,302.1 L 998.253,302.969 L 998.253,303.848 L 999.33,307.769 L 1000.4,308.875 L 1002.77,309.31 L 1004.91,308.875 L 1005.98,307.769 L 1006.84,305.152 L 1007.27,303.848 L 1007.27,302.969 L 1006.84,302.1 L 1006.84,300.134 L 1006.62,298.604 L 1004.91,297.083 L 1003.83,296.865z"/>
    <path style="fill: none; fill-opacity:0; stroke-width: 0.02; stroke: #aae6ff" d="M 1003.83 296.865 L 1001.47,296.865 L 1000.4,297.083 L 998.688,298.604 L 998.471,300.134 L 998.471,302.1 L 998.253,302.969 L 998.253,303.848 L 999.33,307.769 L 1000.4,308.875 L 1002.77,309.31 L 1004.91,308.875 L 1005.98,307.769 L 1006.84,305.152 L 1007.27,303.848 L 1007.27,302.969 L 1006.84,302.1 L 1006.84,300.134 L 1006.62,298.604 L 1004.91,297.083 L 1003.83,296.865"/>
  </g>
  <g>
    <path style="fill: none; fill-opacity:0; stroke-width: 2; stroke: #000000" d="M 819.606 483.99 C 813.132,510.91 829.005,557.969 845.492,568.801"/>
    <polygon style="fill: #000000" points="851.76,572.919 840.657,571.607 845.492,568.801 846.148,563.249 "/>
    <polygon style="fill: none; fill-opacity:0; stroke-width: 2; stroke: #000000" points="851.76,572.919 840.657,571.607 845.492,568.801 846.148,563.249 "/>
  </g>
  <g>
    <path style="fill: none; fill-opacity:0; stroke-width: 2; stroke: #000000" d="M 923.583 574.15 C 925.133,541.894 914.707,508.389 902.557,491.841"/>
    <polygon style="fill: #000000" points="898.119,485.796 908.067,490.897 902.557,491.841 900.006,496.815 "/>
    <polygon style="fill: none; fill-opacity:0; stroke-width: 2; stroke: #000000" points="898.119,485.796 908.067,490.897 902.557,491.841 900.006,496.815 "/>
  </g>
  <g>
    <path style="fill: none; fill-opacity:0; stroke-width: 2; stroke: #000000" d="M 812.2 325.603 C 796.476,278.523 736.42,262.853 702.273,252.519"/>
    <polygon style="fill: #000000" points="695.094,250.346 706.114,248.457 702.273,252.519 703.217,258.029 "/>
    <polygon style="fill: none; fill-opacity:0; stroke-width: 2; stroke: #000000" points="695.094,250.346 706.114,248.457 702.273,252.519 703.217,258.029 "/>
  </g>
  <g>
    <path style="fill: none; fill-opacity:0; stroke-width: 2; stroke: #000000" d="M 614.782 450.08 C 615.312,182.806 616.301,537.68 614.933,280.312"/>
    <polygon style="fill: #000000" points="614.893,272.812 619.946,282.785 614.933,280.312 609.946,282.838 "/>
    <polygon style="fill: none; fill-opacity:0; stroke-width: 2; stroke: #000000" points="614.893,272.812 619.946,282.785 614.933,280.312 609.946,282.838 "/>
  </g>
  <g>
    <path style="fill: none; fill-opacity:0; stroke-width: 2; stroke: #000000" d="M 846.967 609.463 C 821.343,606.285 725.87,580.961 679.687,545.109"/>
    <polygon style="fill: #000000" points="673.762,540.51 684.728,542.693 679.687,545.109 678.595,550.592 "/>
    <polygon style="fill: none; fill-opacity:0; stroke-width: 2; stroke: #000000" points="673.762,540.51 684.728,542.693 679.687,545.109 678.595,550.592 "/>
  </g>
  <g>
    <path style="fill: none; fill-opacity:0; stroke-width: 2; stroke: #000000" d="M 1021.94 400.991 C 1020.29,477.191 1017.02,547.97 989.474,568.357"/>
    <polygon style="fill: #000000" points="983.445,572.818 988.509,562.851 989.474,568.357 994.458,570.889 "/>
    <polygon style="fill: none; fill-opacity:0; stroke-width: 2; stroke: #000000" points="983.445,572.818 988.509,562.851 989.474,568.357 994.458,570.889 "/>
  </g>
  <g>
    <path style="fill: none; fill-opacity:0; stroke-width: 2; stroke: #000000" d="M 1191.83 527.873 C 1142.98,559.695 1104.34,582.959 1005.52,602.27"/>
    <polygon style="fill: #000000" points="998.162,603.708 1007.02,596.883 1005.52,602.27 1008.94,606.697 "/>
    <polygon style="fill: none; fill-opacity:0; stroke-width: 2; stroke: #000000" points="998.162,603.708 1007.02,596.883 1005.52,602.27 1008.94,606.697 "/>
  </g>
  <g>
    <path style="fill: none; fill-opacity:0; stroke-width: 2; stroke: #000000" d="M 1094 296.484 C 1132.35,282.684 1170.13,259.347 1187.59,247.342"/>
    <polygon style="fill: #000000" points="1193.77,243.092 1188.36,252.878 1187.59,247.342 1182.7,244.638 "/>
    <polygon style="fill: none; fill-opacity:0; stroke-width: 2; stroke: #000000" points="1193.77,243.092 1188.36,252.878 1187.59,247.342 1182.7,244.638 "/>
  </g>
  <g>
    <path style="fill: none; fill-opacity:0; stroke-width: 2; stroke: #000000" d="M 847.829 315.923 C 852.179,273.807 870.389,187.037 889.922,154.558"/>
    <polygon style="fill: #000000" points="847.059,323.383 843.113,312.922 847.829,315.923 853.06,313.95 "/>
    <polygon style="fill: none; fill-opacity:0; stroke-width: 2; stroke: #000000" points="847.059,323.383 843.113,312.922 847.829,315.923 853.06,313.95 "/>
    <polygon style="fill: #000000" points="893.787,148.131 892.918,159.278 889.922,154.558 884.349,154.124 "/>
    <polygon style="fill: none; fill-opacity:0; stroke-width: 2; stroke: #000000" points="893.787,148.131 892.918,159.278 889.922,154.558 884.349,154.124 "/>
  </g>
  <g>
    <path style="fill: none; fill-opacity:0; stroke-width: 2; stroke: #000000" d="M 993.799 233.473 C 993.266,231.897 952.878,190.104 940.665,155.464"/>
    <polygon style="fill: #000000" points="996.2,240.578 988.262,232.706 993.799,233.473 997.735,229.504 "/>
    <polygon style="fill: none; fill-opacity:0; stroke-width: 2; stroke: #000000" points="996.2,240.578 988.262,232.706 993.799,233.473 997.735,229.504 "/>
    <polygon style="fill: #000000" points="938.171,148.391 946.212,156.16 940.665,155.464 936.781,159.485 "/>
    <polygon style="fill: none; fill-opacity:0; stroke-width: 2; stroke: #000000" points="938.171,148.391 946.212,156.16 940.665,155.464 936.781,159.485 "/>
  </g>
  <g>
    <path style="fill: none; fill-opacity:0; stroke-width: 2; stroke: #000000" d="M 1093.99 385.665 C 1117.34,406.865 1151.34,432.59 1164.37,438.657"/>
    <polygon style="fill: #000000" points="1171.17,441.824 1159.99,442.134 1164.37,438.657 1164.21,433.069 "/>
    <polygon style="fill: none; fill-opacity:0; stroke-width: 2; stroke: #000000" points="1171.17,441.824 1159.99,442.134 1164.37,438.657 1164.21,433.069 "/>
  </g>
  <g>
    <rect style="fill: #ffffff" x="594.449" y="356.738" width="41.55" height="17.1"/>
    <text font-size="14.6756" style="fill: #000000;text-anchor:middle;font-family:sans-serif;font-style:normal;font-weight:700" x="615.224" y="370.388">
      <tspan x="615.224" y="370.388">build</tspan>
    </text>
  </g>
  <g>
    <rect style="fill: #ffffff" x="739.708" y="270.126" width="58.8" height="17.1"/>
    <text font-size="14.6756" style="fill: #000000;text-anchor:middle;font-family:sans-serif;font-style:normal;font-weight:700" x="769.108" y="283.776">
      <tspan x="769.108" y="283.776">testing</tspan>
    </text>
  </g>
  <g>
    <rect style="fill: #ffffff" x="715.611" y="572.858" width="57.55" height="17.1"/>
    <text font-size="14.6756" style="fill: #000000;text-anchor:middle;font-family:sans-serif;font-style:normal;font-weight:700" x="744.386" y="586.508">
      <tspan x="744.386" y="586.508">trigger</tspan>
    </text>
  </g>
  <g>
    <rect style="fill: #ffffff" x="754.266" y="505.156" width="108.8" height="35.4444"/>
    <text font-size="14.6756" style="fill: #000000;text-anchor:middle;font-family:sans-serif;font-style:normal;font-weight:700" x="808.666" y="518.806">
      <tspan x="808.666" y="518.806">merge</tspan>
      <tspan x="808.666" y="537.15">pull requests</tspan>
    </text>
  </g>
  <g>
    <rect style="fill: #ffffff" x="867.822" y="522.1" width="108.8" height="35.4444"/>
    <text font-size="14.6756" style="fill: #000000;text-anchor:middle;font-family:sans-serif;font-style:normal;font-weight:700" x="922.222" y="535.75">
      <tspan x="922.222" y="535.75">review</tspan>
      <tspan x="922.222" y="554.094">pull requests</tspan>
    </text>
  </g>
  <g>
    <rect style="fill: #ffffff" x="987.216" y="455.428" width="63.9" height="35.4444"/>
    <text font-size="14.6756" style="fill: #000000;text-anchor:middle;font-family:sans-serif;font-style:normal;font-weight:700" x="1019.17" y="469.078">
      <tspan x="1019.17" y="469.078">pull</tspan>
      <tspan x="1019.17" y="487.422">request</tspan>
    </text>
  </g>
  <g>
    <rect style="fill: #ffffff" x="1079.38" y="563.214" width="61.35" height="17.1"/>
    <text font-size="14.6756" style="fill: #000000;text-anchor:middle;font-family:sans-serif;font-style:normal;font-weight:700" x="1110.05" y="576.864">
      <tspan x="1110.05" y="576.864">links to</tspan>
    </text>
  </g>
  <g>
    <rect style="fill: #ffffff" x="1096.06" y="402.858" width="52.1" height="17.1"/>
    <text font-size="14.6756" style="fill: #000000;text-anchor:middle;font-family:sans-serif;font-style:normal;font-weight:700" x="1122.11" y="416.508">
      <tspan x="1122.11" y="416.508">report</tspan>
    </text>
  </g>
  <g>
    <rect style="fill: #ffffff" x="1117.92" y="266.714" width="82.5" height="17.1"/>
    <text font-size="14.6756" style="fill: #000000;text-anchor:middle;font-family:sans-serif;font-style:normal;font-weight:700" x="1159.17" y="280.364">
      <tspan x="1159.17" y="280.364">document</tspan>
    </text>
  </g>
  <g>
    <rect style="fill: #ffffff" x="941.779" y="191.327" width="60.95" height="17.1"/>
    <text font-size="14.6756" style="fill: #000000;text-anchor:middle;font-family:sans-serif;font-style:normal;font-weight:700" x="972.254" y="204.977">
      <tspan x="972.254" y="204.977">discuss</tspan>
    </text>
  </g>
  <g>
    <rect style="fill: #ffffff" x="839.301" y="207.6" width="60.95" height="17.1"/>
    <text font-size="14.6756" style="fill: #000000;text-anchor:middle;font-family:sans-serif;font-style:normal;font-weight:700" x="869.776" y="221.25">
      <tspan x="869.776" y="221.25">discuss</tspan>
    </text>
  </g>
  <g>
    <path style="fill: none; fill-opacity:0; stroke-width: 2; stroke: #000000" d="M 587.52 450.124 C 373.622,99.6011 638.383,37.3327 852.967,86.083"/>
    <polygon style="fill: #000000" points="860.28,87.7445 849.421,90.4049 852.967,86.083 851.637,80.6534 "/>
    <polygon style="fill: none; fill-opacity:0; stroke-width: 2; stroke: #000000" points="860.28,87.7445 849.421,90.4049 852.967,86.083 851.637,80.6534 "/>
  </g>
  <g>
    <rect style="fill: #ffffff" x="571.779" y="90.8198" width="48.65" height="17.1"/>
    <text font-size="14.6756" style="fill: #000000;text-anchor:middle;font-family:sans-serif;font-style:normal;font-weight:700" x="596.104" y="104.47">
      <tspan x="596.104" y="104.47">notify</tspan>
    </text>
  </g>
  <g>
    <path style="fill: none; fill-opacity:0; stroke-width: 2; stroke: #000000" d="M 908.966 408.4 C 942.014,410.092 1005.75,412.54 1163.75,456.481"/>
    <polygon style="fill: #000000" points="1170.98,458.49 1160,460.628 1163.75,456.481 1162.68,450.994 "/>
    <polygon style="fill: none; fill-opacity:0; stroke-width: 2; stroke: #000000" points="1170.98,458.49 1160,460.628 1163.75,456.481 1162.68,450.994 "/>
  </g>
  <g>
    <rect style="fill: #ffffff" x="1060.31" y="429.7" width="52.1" height="17.1"/>
    <text font-size="14.6756" style="fill: #000000;text-anchor:middle;font-family:sans-serif;font-style:normal;font-weight:700" x="1086.36" y="443.35">
      <tspan x="1086.36" y="443.35">report</tspan>
    </text>
  </g>
  <g>
    <path style="fill: none; fill-opacity:0; stroke-width: 2; stroke: #000000" d="M 1245.43 438.738 C 1229.41,390.506 1148.88,336.597 1103.64,331.252"/>
    <polygon style="fill: #000000" points="1096.19,330.372 1106.71,326.58 1103.64,331.252 1105.54,336.511 "/>
    <polygon style="fill: none; fill-opacity:0; stroke-width: 2; stroke: #000000" points="1096.19,330.372 1106.71,326.58 1103.64,331.252 1105.54,336.511 "/>
  </g>
  <g>
    <rect style="fill: #ffffff" x="1156.82" y="355.056" width="48.65" height="17.1"/>
    <text font-size="14.6756" style="fill: #000000;text-anchor:middle;font-family:sans-serif;font-style:normal;font-weight:700" x="1181.15" y="368.706">
      <tspan x="1181.15" y="368.706">notify</tspan>
    </text>
  </g>
</svg>
